<svg id="Layer_1" data-name="Layer 1" xmlns="http://www.w3.org/2000/svg" viewBox="0 0 2000 2000"><defs><style>.cls-1{fill:#f89521;}.cls-2{fill:#67308f;}</style></defs><title>lockup color</title><path class="cls-1" d="M835.11,1070.26v202.82H974.72V908.48C881.39,905,835.11,950.28,835.11,1070.26Z"/><path class="cls-1" d="M715.46,820.54H835.11v84.11l36.42-64.17c22.54-20.81,52.89-31.21,78.9-31.21a154.61,154.61,0,0,1,24.29,1.55V519.47H711.05A105.28,105.28,0,0,0,605.78,624.74v648.34H715.46Z"/><path class="cls-2" d="M1214.47,1155.93l-19,41.67c-1.61,1.08-3.3,2-5,3h29.68Z"/><path class="cls-2" d="M1213,1069.68v-31.43c-80.4-5.85-134.49,12.42-134.49,63.59,0,34.36,23.39,50.43,59.2,50.43C1178.65,1152.27,1213,1123.77,1213,1069.68Z"/><path class="cls-2" d="M1151.6,884.75c-40.2,0-62.13,23.39-65,65.78l-54.73.41v57.81c35.85-21.32,88.12-32.63,156.33-32.63H1213v-8c0-11.7,0-23.39-1.46-36.55C1208.62,904.49,1191.07,884.75,1151.6,884.75Z"/><path class="cls-2" d="M1295.49,447H1031.82V855.06c30.07-26.86,73.58-41.21,123.44-41.21,108.91,0,149.84,47.51,155.69,114.76,1.46,18.27,2.19,38.74,2.19,59.93v125.73c0,26.33,1.2,50.33,5.71,86.34h81.91V552.27A105.27,105.27,0,0,0,1295.49,447Z"/><path d="M679.2,1373.57v26.07c-27-1.88-40.39,10.1-40.39,43.68v57.31H606.4V1375.69h32.41v22.78l9.86-17.38a32.51,32.51,0,0,1,21.38-8.45A35.6,35.6,0,0,1,679.2,1373.57Z"/><path d="M807.43,1446.61H718.66c2.11,26.31,13.86,34.53,28.89,34.53,13.85,0,24-7.75,26.06-21.14H806c-6.34,29.12-29.82,43.92-59.18,43.92-34.29,0-60.82-21.38-60.82-65.29,0-38.28,25.12-66.23,63.4-66.23s58.48,29.12,58.48,63.17A96.31,96.31,0,0,1,807.43,1446.61Zm-87.83-21.13h54.95c-2.11-19.73-11-30.3-26.53-30.3C733,1395.18,722.42,1404.81,719.6,1425.48Z"/><path d="M960.08,1435.81c0,45.09-27.71,68.11-59.89,68.11-10.33,0-23-2.59-29.35-7.05L862.62,1484v16.68H830.21V1328h32.41v66.7l9.39-13.62c7-5.64,19.73-8.69,32.41-8.69C939.41,1372.4,960.08,1398.94,960.08,1435.81Zm-33.58,2.11c0-25.6-12.22-42.74-31.47-42.74-17.85,0-32.41,11-32.41,41.57v5.87c0,28.42,16.2,38.52,31.23,38.52C912.64,1481.14,926.5,1466.81,926.5,1437.92Z"/><path d="M1051.43,1482.31l-6.1,13.39c-8.69,5.87-19.26,8.22-31,8.22-21.61,0-40.16-12.69-40.16-36.41,0-27.47,23.48-43,68.81-43h8V1422a102.14,102.14,0,0,0-.47-11.74c-.94-8.69-6.57-15-19.25-15-12.92,0-20,7.52-20.91,21.14l-31.47.23c.94-28.18,23.72-44.15,53.55-44.15,35,0,48.14,15.27,50,36.87.47,5.87.71,12.45.71,19.26v40.39a215.84,215.84,0,0,0,2.35,31.71h-31.71Zm-.47-27.71v-10.1c-25.83-1.88-43.21,4-43.21,20.43,0,11,7.52,16.21,19,16.21C1039.92,1481.14,1051,1472,1051,1454.6Z"/><path d="M1207.37,1411.85H1175c-2.11-11.5-8.45-18.08-19.26-18.08-9.62,0-14.79,5.64-14.79,13.39,0,9.39,7.75,14.32,28.42,19.49,25.59,6.58,40.62,16.91,40.62,39.92,0,25.13-22.78,37.35-51.43,37.35-30.29,0-51.66-13.16-55.19-41.34h32.41c2.59,13.62,12,20,23.25,20,10.34,0,18.32-4.46,18.32-13.62,0-9.63-8.22-15-29.83-20.43-23.25-5.87-39.22-16-39.22-37.57,0-24,19.73-38.52,49.56-38.52S1204.55,1389.07,1207.37,1411.85Z"/><path d="M1342.88,1446.61H1254.1c2.12,26.31,13.86,34.53,28.89,34.53,13.86,0,24-7.75,26.07-21.14h32.41c-6.34,29.12-29.83,43.92-59.18,43.92-34.29,0-60.83-21.38-60.83-65.29,0-38.28,25.13-66.23,63.41-66.23s58.47,29.12,58.47,63.17A98.39,98.39,0,0,1,1342.88,1446.61ZM1255,1425.48h55c-2.12-19.73-11-30.3-26.54-30.3C1268.43,1395.18,1257.86,1404.81,1255,1425.48Z"/><path class="cls-1" d="M1399.24,1484.19c0,11.51-8,19.73-19.73,19.73-11.51,0-19.49-8.22-19.49-19.73s8-19.73,19.49-19.73C1391.25,1464.46,1399.24,1472.68,1399.24,1484.19Z"/></svg>